<?xml version="1.0" standalone="no"?>
<!DOCTYPE svg PUBLIC "-//W3C//DTD SVG 20010904//EN"
 "http://www.w3.org/TR/2001/REC-SVG-20010904/DTD/svg10.dtd">
<svg version="1.0" xmlns="http://www.w3.org/2000/svg"
 width="750.000000pt" height="750.000000pt" viewBox="0 0 750.000000 750.000000"
 preserveAspectRatio="xMidYMid meet">
<metadata>
Created by potrace 1.11, written by Peter Selinger 2001-2013
</metadata>
<g transform="translate(0.000000,750.000000) scale(0.100000,-0.100000)"
fill="#000000" stroke="none">
<path d="M2458 5883 l-1253 -1253 44 -44 44 -45 -32 -31 c-17 -17 -31 -35 -31
-38 0 -4 165 -172 367 -374 l368 -368 -379 -379 c-419 -419 -390 -380 -324
-441 l28 -25 -30 -32 c-17 -18 -30 -36 -30 -40 0 -4 558 -566 1240 -1248
l1240 -1240 1245 1245 1245 1245 -30 30 c-17 17 -30 35 -30 41 0 5 16 22 35
38 19 16 35 34 35 40 0 6 -170 181 -377 388 l-377 377 370 370 370 369 -34 36
-33 36 41 41 c23 22 40 45 38 50 -2 5 -564 570 -1250 1257 l-1248 1247 -1252
-1252z m2178 -407 c508 -508 924 -927 924 -932 0 -5 -102 -111 -227 -236
l-228 -228 -697 697 -698 698 -693 -693 c-380 -380 -696 -692 -701 -692 -4 0
-109 101 -233 225 -148 149 -222 229 -217 237 8 14 1836 1847 1843 1847 2 1
419 -415 927 -923z m-1616 -2801 c377 -377 688 -685 691 -685 4 0 316 309 693
687 l687 687 239 -240 239 -239 -929 -927 -928 -928 -903 904 c-497 497 -915
916 -929 930 l-24 27 234 234 c129 129 237 235 240 235 3 0 313 -308 690 -685z"/>
</g>
</svg>
